<svg width="32" height="32" viewBox="0 0 32 32" fill="none" xmlns="http://www.w3.org/2000/svg">
<path d="M21.7729 17.9974C22.8831 17.1246 23.7804 16.011 24.3972 14.7406C25.0139 13.4702 25.3338 12.0762 25.3329 10.6641H27.9996C28.0007 12.5445 27.5595 14.3988 26.7116 16.0771C25.8636 17.7555 24.6326 19.2108 23.1182 20.3254L26.4876 26.1627C26.8412 26.7752 26.937 27.5031 26.754 28.1862C26.5709 28.8693 26.124 29.4518 25.5116 29.8054L20.8089 21.6614C19.2921 22.3237 17.6547 22.6651 15.9996 22.6641C14.3445 22.6651 12.707 22.3237 11.1902 21.6614L6.48756 29.8054C5.8751 29.4518 5.42819 28.8693 5.24516 28.1862C5.06213 27.5031 5.15795 26.7752 5.51156 26.1627L12.2636 14.4694C11.5902 13.8074 11.1045 12.9786 10.8562 12.0675C10.6078 11.1565 10.6057 10.1958 10.85 9.28371C11.0943 8.37157 11.5763 7.5406 12.2468 6.87564C12.9172 6.21067 13.7521 5.73553 14.6662 5.49873V2.66406H17.3329V5.49873C18.2471 5.73536 19.0822 6.21037 19.7528 6.87526C20.4234 7.54015 20.9055 8.37111 21.15 9.28327C21.3944 10.1954 21.3924 11.1561 21.1441 12.0673C20.8959 12.9784 20.4103 13.8073 19.7369 14.4694L21.7729 17.9974ZM19.4662 19.3321L17.4289 15.8041C16.4946 16.0637 15.5072 16.0637 14.5729 15.8041L12.5356 19.3321C13.6379 19.7722 14.814 19.998 16.0009 19.9974C17.1878 19.998 18.3639 19.7722 19.4662 19.3321ZM15.9996 13.3307C16.7068 13.3307 17.3851 13.0498 17.8852 12.5497C18.3853 12.0496 18.6662 11.3713 18.6662 10.6641C18.6662 9.95682 18.3853 9.27854 17.8852 8.77845C17.3851 8.27835 16.7068 7.9974 15.9996 7.9974C15.2923 7.9974 14.614 8.27835 14.1139 8.77845C13.6138 9.27854 13.3329 9.95682 13.3329 10.6641C13.3329 11.3713 13.6138 12.0496 14.1139 12.5497C14.614 13.0498 15.2923 13.3307 15.9996 13.3307Z" fill="#DDDDDD"/>
</svg>
